<svg width="160" height="18" viewBox="0 0 160 18" fill="none" xmlns="http://www.w3.org/2000/svg">
<mask id="mask0_102_20" style="mask-type:luminance" maskUnits="userSpaceOnUse" x="0" y="0" width="42" height="18">
<path fill-rule="evenodd" clip-rule="evenodd" d="M0 0H41.2579V18H0V0Z" fill="white"/>
</mask>
<g mask="url(#mask0_102_20)">
<path fill-rule="evenodd" clip-rule="evenodd" d="M10.8532 5.06313L0.189767 16.7794C0.0667654 16.9144 0.00167357 17.088 -0.00012207 17.2648V17.2751C0.000326839 17.3715 0.0205278 17.4693 0.0604807 17.5617C0.174953 17.8259 0.432178 17.996 0.716786 17.996H6.52208C6.55305 17.9978 6.60154 18 6.66438 18C7.40374 18 10.02 17.7187 12.6632 14.0941C13.6113 12.795 14.9746 10.7894 16.7146 8.13552L15.709 7.04635C13.8896 9.8267 12.4791 11.9046 11.5104 13.2315C9.20746 16.3896 7.0693 16.5493 6.66438 16.5493L6.6186 16.5488C6.59615 16.5461 6.57236 16.5452 6.54901 16.5452H2.35082L11.9202 6.03119C11.9292 6.02132 12.81 5.03398 13.9367 5.03398C14.5921 5.03398 15.2399 5.3758 15.8639 6.05003L16.1543 6.36449L17.1558 7.46129C17.3794 7.71205 17.5774 7.93769 17.7502 8.13552C18.8348 9.37632 19.2828 9.88951 20.6295 9.88951C21.9753 9.88951 22.4242 9.37542 23.507 8.13507C23.529 8.1104 23.5506 8.08528 23.5725 8.06016L22.7609 6.80052C22.6438 6.93375 22.5351 7.05801 22.4346 7.17375C21.3707 8.39122 21.3033 8.43787 20.6295 8.43787C19.9548 8.43787 19.8875 8.39122 18.8244 7.17375C18.5861 6.90235 18.3064 6.58206 17.9706 6.21107L16.9646 5.11697L16.9103 5.05865C16.0048 4.07983 15.0042 3.58369 13.9367 3.58369C12.1474 3.58369 10.8922 5.01693 10.8532 5.06313M20.6295 -9.15527e-05C20.3853 -9.15527e-05 20.1568 0.126859 20.0253 0.335005C20.0114 0.356537 18.877 2.15403 17.3888 4.46113L18.3984 5.5503C19.3151 4.13097 20.1151 2.87671 20.6291 2.0688C21.2207 3.00142 22.1926 4.52438 23.2866 6.21107L24.1 7.46219C26.0559 10.4552 27.571 12.6909 28.5954 14.0928C31.239 17.7187 33.8548 18 34.5933 18C34.6575 18 34.7055 17.9978 34.736 17.996H40.5404C40.8255 17.996 41.0832 17.8259 41.1972 17.5617C41.3121 17.298 41.2609 16.9907 41.0683 16.7794L30.418 5.07794C30.3654 5.01648 29.1098 3.58369 27.3209 3.58369C26.446 3.58369 25.6164 3.91699 24.847 4.57462L25.6537 5.78985C26.1951 5.28788 26.7558 5.03398 27.3209 5.03398C28.4491 5.03398 29.3307 6.02401 29.3505 6.04599L38.9068 16.5452H34.7095C34.6929 16.5452 34.6655 16.547 34.6494 16.5475L34.5933 16.5493C34.1888 16.5493 32.0511 16.3896 29.7486 13.2315C28.7036 11.8009 27.1409 9.49161 25.102 6.36539L24.2922 5.11741C22.6007 2.50304 21.2485 0.358331 21.2333 0.335005C21.1022 0.126859 20.8737 0.000357036 20.6295 -9.15527e-05" fill="#6F536F"/>
</g>
<path fill-rule="evenodd" clip-rule="evenodd" d="M55.5986 15V9.77788L53.3333 13.1938H53.2875L51.0448 9.81115V15H49.3082V7H51.2174L53.3333 10.3831L55.4492 7H57.3585V15H55.5986Z" fill="#6F536F"/>
<path fill-rule="evenodd" clip-rule="evenodd" d="M63.3962 14.8681H65.1557V7.1329H63.3962V14.8681Z" fill="#6F536F"/>
<path fill-rule="evenodd" clip-rule="evenodd" d="M76.192 14.8682L72.3185 9.95104V14.8682H70.5825V7.13293H72.2039L75.9507 11.8957V7.13293H77.6876V14.8682H76.192Z" fill="#6F536F"/>
<path fill-rule="evenodd" clip-rule="evenodd" d="M86.368 14.9891C84.2206 14.9891 82.9064 13.8287 82.9064 11.5532V7.13303H84.6658V11.5084C84.6658 12.7684 85.3178 13.4201 86.391 13.4201C87.4643 13.4201 88.1162 12.7897 88.1162 11.5637V7.13303H89.8753V11.498C89.8753 13.8414 88.5155 14.9891 86.368 14.9891" fill="#6F536F"/>
<path fill-rule="evenodd" clip-rule="evenodd" d="M98.7161 8.70164V14.8683H96.957V8.70164H94.524V7.1326H101.15V8.70164H98.7161Z" fill="#6F536F"/>
<path fill-rule="evenodd" clip-rule="evenodd" d="M105.923 14.8682V7.13293H111.956V8.64807H107.673V10.2154H111.442V11.7305H107.673V13.3548H112.014V14.8682H105.923Z" fill="#6F536F"/>
<path fill-rule="evenodd" clip-rule="evenodd" d="M122.613 14.8682L118.74 9.95104V14.8682H117.005V7.13293H118.627L122.372 11.8957V7.13293H124.109V14.8682H122.613Z" fill="#6F536F"/>
<path fill-rule="evenodd" clip-rule="evenodd" d="M133.076 8.70164V14.8683H131.317V8.70164H128.883V7.1326H135.509V8.70164H133.076Z" fill="#6F536F"/>
<path fill-rule="evenodd" clip-rule="evenodd" d="M146.234 14.8681L145.505 13.1326H142.122L141.392 14.8681H139.598L143.025 7.0777H144.648L148.076 14.8681H146.234ZM143.813 9.1228L142.752 11.6314H144.877L143.813 9.1228Z" fill="#6F536F"/>
<path fill-rule="evenodd" clip-rule="evenodd" d="M156.584 15C154.094 15 152.381 13.3101 152.381 11.0233V11.0007C152.381 8.80121 154.152 7 156.573 7C158.013 7 158.88 7.37607 159.716 8.06168L158.608 9.35379C157.991 8.85642 157.44 8.56991 156.517 8.56991C155.237 8.56991 154.22 9.66333 154.22 10.978V11.0007C154.22 12.4149 155.225 13.454 156.641 13.454C157.281 13.454 157.853 13.2979 158.299 12.9888V11.8841H156.529V10.4159H160V13.774C159.179 14.4487 158.046 15 156.584 15" fill="#6F536F"/>
</svg>
