<svg width="16" height="16" viewBox="0 0 16 16" fill="none" xmlns="http://www.w3.org/2000/svg">
<path fill-rule="evenodd" clip-rule="evenodd" d="M15.1172 0L0.882759 0C0.395224 0 0 0.395224 0 0.882759L0 15.1172C0 15.6048 0.395224 16 0.882759 16L8.55172 16L8.55172 9.81241H6.46897L6.46897 7.39034H8.55172V5.60828C8.55172 3.54207 9.81517 2.41655 11.6579 2.41655C12.2789 2.4152 12.8995 2.4465 13.5172 2.51034L13.5172 4.67034L12.2483 4.67034C11.2441 4.67034 11.0483 5.14483 11.0483 5.84552V7.38759L13.4483 7.38759L13.1366 9.80966H11.0345L11.0345 16H15.1172C15.6048 16 16 15.6048 16 15.1172L16 0.882759C16 0.395224 15.6048 0 15.1172 0Z" fill="#6F536F"/>
</svg>
