<svg width="42" height="42" viewBox="0 0 42 42" fill="none" xmlns="http://www.w3.org/2000/svg">
<path id="&#244;&#128;&#165;&#180; copy" d="M6.58594 41.8672H35.4375C39.5859 41.8672 41.7422 39.6641 41.7422 35.5859V6.6875C41.7422 2.60938 39.5859 0.382812 35.4375 0.382812H6.58594C2.4375 0.382812 0.257812 2.53906 0.257812 6.6875V35.5859C0.257812 39.7109 2.4375 41.8672 6.58594 41.8672ZM6.63281 40.1328C3.58594 40.1328 1.99219 38.5391 1.99219 35.4922V6.78125C1.99219 3.71094 3.58594 2.11719 6.63281 2.11719H35.3672C38.3203 2.11719 40.0078 3.71094 40.0078 6.78125V35.4922C40.0078 38.5391 38.3203 40.1328 35.3672 40.1328H6.63281ZM11.1562 6.73438C9.16406 6.73438 7.71094 8.28125 7.71094 10.2969C7.71094 13.7656 11.4375 16.9062 13.6875 18.125C13.8281 18.1953 13.9688 18.2891 14.0859 18.2891C14.2031 18.2891 14.3438 18.2188 14.5078 18.125C16.6406 16.8359 20.4609 13.7656 20.4609 10.2969C20.4609 8.28125 18.9844 6.73438 16.9688 6.73438C15.7031 6.73438 14.6484 7.57812 14.0859 8.5625C13.5234 7.57812 12.4453 6.73438 11.1562 6.73438ZM8.50781 26.7266H32.5078C32.9531 26.7266 33.3047 26.375 33.3047 25.9297C33.3047 25.5078 32.9531 25.1562 32.5078 25.1562H8.50781C8.03906 25.1562 7.71094 25.5078 7.71094 25.9297C7.71094 26.375 8.03906 26.7266 8.50781 26.7266ZM8.50781 34.3203H25.6172C26.0859 34.3203 26.4375 33.9922 26.4375 33.5469C26.4375 33.125 26.0859 32.7734 25.6172 32.7734H8.50781C8.03906 32.7734 7.71094 33.125 7.71094 33.5469C7.71094 33.9922 8.03906 34.3203 8.50781 34.3203Z" fill="#6F536F"/>
</svg>
