<svg width="52" height="60" viewBox="0 0 52 60" fill="none" xmlns="http://www.w3.org/2000/svg">
<path id="&#244;&#128;&#178;&#174;" d="M16.7109 11.5547C16.8516 11.5547 16.9453 11.5078 16.9688 11.3438C17.5312 7.38281 17.6719 7.14844 21.8203 6.46875C22.0078 6.42188 22.1016 6.35156 22.1016 6.1875C22.1016 6.02344 22.0078 5.95312 21.8203 5.90625C17.6953 5.08594 17.9062 4.82812 16.9688 1.03125C16.9453 0.890625 16.8516 0.820312 16.7109 0.820312C16.5938 0.820312 16.5 0.890625 16.4766 1.03125C15.5391 4.82812 15.8203 5.08594 11.625 5.90625C11.4375 5.95312 11.3438 6.04688 11.3438 6.1875C11.3438 6.35156 11.4375 6.42188 11.625 6.46875C15.8203 7.3125 15.8438 7.38281 16.4766 11.3438C16.5 11.5078 16.5938 11.5547 16.7109 11.5547ZM32.1094 17.4609C32.3203 17.4609 32.4609 17.3438 32.5078 17.1328C33.4219 11.2266 33.3984 11.3672 39.3984 10.1953C39.6094 10.1719 39.7734 10.0547 39.7734 9.84375C39.7734 9.63281 39.6094 9.49219 39.4219 9.46875C33.4219 8.27344 33.4219 8.46094 32.5078 2.55469C32.4609 2.32031 32.3203 2.20312 32.1094 2.20312C31.9453 2.20312 31.8047 2.32031 31.7578 2.55469C30.8203 8.46094 30.9141 8.32031 24.8438 9.46875C24.6328 9.49219 24.4922 9.63281 24.4922 9.84375C24.4922 10.0547 24.6328 10.1719 24.8438 10.1953C30.9141 11.4141 30.8203 11.25 31.7578 17.1562C31.8047 17.3438 31.9453 17.4609 32.1094 17.4609ZM18.3516 14.4609C17.8359 14.9766 17.4844 15.6094 17.3906 16.3125C15.7969 15.1172 14.0156 15.2578 12.7031 16.5703C12.0234 17.25 11.6484 18.1172 11.7422 19.1016C10.0781 17.5781 8.01562 17.3672 6.49219 18.9141C4.96875 20.4375 5.10938 22.6406 6.5625 24.2578C5.60156 24.1641 4.73438 24.5391 4.07812 25.1953C2.64844 26.6484 2.64844 28.6875 4.33594 30.375L6.60938 32.6484C5.625 32.5547 4.73438 32.9766 4.05469 33.6562C2.625 35.1094 2.625 37.1484 4.33594 38.8594L18.1406 52.6641C24.4922 59.0156 31.4062 59.4609 37.0312 55.875C40.1953 55.4297 43.1719 53.8125 45.7734 51.2578C51.0469 46.0078 51.9609 39.3281 48.5156 32.1562L42.8203 20.25C42.0703 18.6094 40.6406 17.8125 39.1875 17.8125C37.5703 17.8125 36.0703 18.7969 35.6719 20.4609C34.2891 19.4766 32.4844 19.6172 31.1719 20.9297C30.9375 21.1641 30.75 21.4219 30.6094 21.7031L23.5781 14.6719C21.8672 12.9609 19.8516 13.0078 18.3516 14.4609ZM33.1406 31.9922L18.6562 17.5078C18.5391 16.8281 18.7266 16.1719 19.2891 15.6094C20.2266 14.6719 21.4219 14.8359 22.4766 15.8672L30.2344 23.6016C30.2578 24.1172 30.3984 24.6562 30.6328 25.2188L33.4219 31.7109C33.4688 31.8516 33.4688 31.9453 33.3984 32.0156C33.3281 32.0859 33.2109 32.0859 33.1406 31.9922ZM39 52.2656C33.4922 57.7734 26.0859 58.3359 19.2188 51.4922L5.50781 37.7578C4.47656 36.7266 4.3125 35.5078 5.25 34.5703C6.21094 33.6328 7.52344 33.6797 8.55469 34.7109L16.6875 42.8438C17.1797 43.3125 17.6484 43.2422 17.9297 42.9609C18.2344 42.6562 18.2812 42.2109 17.8125 41.7188L5.46094 29.3672C4.40625 28.3359 4.26562 27.1172 5.20312 26.1797C6.14062 25.2422 7.47656 25.2891 8.50781 26.3203L20.0156 37.8281C20.4844 38.2969 20.9766 38.2266 21.2578 37.9453C21.5625 37.6406 21.6094 37.1953 21.1172 36.7031L7.75781 23.3438C6.72656 22.3125 6.58594 20.9062 7.54688 19.9688C8.4375 19.0781 9.77344 19.2422 10.8047 20.2734L24.2109 33.6797C24.5625 34.0312 25.0547 34.1484 25.4297 33.7734C25.7812 33.4219 25.6641 32.9062 25.3125 32.5547L13.7812 21.0234C12.75 19.9922 12.7031 18.6797 13.6406 17.7422C14.6016 16.7812 15.8203 16.9453 16.8516 17.9766L32.7656 33.8906C33.3984 34.5234 34.1953 34.4531 34.7344 33.8906C35.2031 33.4219 35.3672 32.8125 35.0391 32.0391L31.9453 24.6562C31.3594 23.2734 31.7109 22.1016 32.8359 21.5625C33.9844 21.0234 35.0625 21.6094 35.7188 22.9688L41.4609 34.9219C44.6016 41.4609 43.6875 47.5781 39 52.2656ZM42.8906 34.2656L37.2891 22.5703C37.1484 22.1953 37.0547 21.8438 37.0547 21.5156C37.0547 20.2969 37.8047 19.4297 39.2109 19.4297C40.0781 19.4297 40.8984 19.9453 41.3672 20.9297L47.1094 32.7891C50.25 39.3281 49.3359 45.4688 44.6484 50.1328C43.2656 51.5156 41.7656 52.5938 40.1953 53.3203C45.3984 48.0938 46.3125 41.4375 42.8906 34.2656ZM6.5625 59.1797C6.70312 59.1797 6.79688 59.1094 6.86719 58.9453C7.47656 54.4219 7.64062 54.1406 12.4219 53.3438C12.6094 53.2969 12.7031 53.2266 12.7031 53.0156C12.7031 52.8516 12.6094 52.7812 12.4219 52.7344C7.66406 51.7734 7.92188 51.4922 6.86719 47.1328C6.79688 46.9688 6.70312 46.8984 6.5625 46.8984C6.42188 46.8984 6.32812 46.9688 6.28125 47.1328C5.22656 51.4922 5.55469 51.7734 0.726562 52.7344C0.539062 52.7812 0.421875 52.8516 0.421875 53.0156C0.421875 53.2266 0.539062 53.2969 0.726562 53.3438C5.55469 54.3047 5.57812 54.4219 6.28125 58.9453C6.32812 59.1094 6.42188 59.1797 6.5625 59.1797Z" fill="#6F536F"/>
</svg>
