<svg width="20" height="20" viewBox="0 0 20 20" fill="none" xmlns="http://www.w3.org/2000/svg">
<path fill-rule="evenodd" clip-rule="evenodd" d="M2.20301 3.00069L15.8371 3.00069C16.4793 3.00069 17 3.5213 17 4.1635L17 17.8365C17 18.4787 16.4793 18.9993 15.8371 18.9993L2.20301 18.9993C1.8877 19.0102 1.5815 18.8925 1.35466 18.6732C1.12782 18.454 0.999813 18.152 1 17.8365L1 4.1635C0.999813 3.84803 1.12782 3.54602 1.35466 3.32676C1.5815 3.1075 1.8877 2.98981 2.20301 3.00069ZM5.77193 16.6336L5.77193 9.01521H3.36592L3.36592 16.6336H5.77193ZM4.56892 7.97269C3.80949 7.95099 3.2052 7.32898 3.20551 6.56931C3.20551 6.08225 3.46538 5.63219 3.88722 5.38866C4.30906 5.14513 4.82879 5.14513 5.25063 5.38866C5.67247 5.63219 5.93233 6.08225 5.93233 6.56931C5.93264 7.32898 5.32835 7.95099 4.56892 7.97269ZM12.2682 16.6336H14.6341L14.6341 12.4635C14.6341 10.3785 14.193 8.81473 11.787 8.81473C10.8659 8.7808 10.0016 9.2592 9.54135 10.0577H9.50125V9.01521H7.25564L7.25564 16.6336H9.62155L9.62155 12.8645C9.62155 11.8621 9.78195 10.8998 11.0251 10.8998C12.2682 10.8998 12.2682 12.0225 12.2682 12.9046L12.2682 16.6336Z" fill="black"/>
</svg>
